<svg width="29" height="29" viewBox="0 0 29 29" fill="none" xmlns="http://www.w3.org/2000/svg">
<path d="M14.5 14.5C12.5063 14.5 10.7995 13.7901 9.37969 12.3703C7.9599 10.9505 7.25 9.24375 7.25 7.25C7.25 5.25625 7.9599 3.54948 9.37969 2.12969C10.7995 0.709896 12.5063 0 14.5 0C16.4937 0 18.2005 0.709896 19.6203 2.12969C21.0401 3.54948 21.75 5.25625 21.75 7.25C21.75 9.24375 21.0401 10.9505 19.6203 12.3703C18.2005 13.7901 16.4937 14.5 14.5 14.5ZM0 29V23.925C0 22.8979 0.264323 21.9539 0.792969 21.093C1.32161 20.232 2.02396 19.575 2.9 19.1219C4.77292 18.1854 6.67604 17.4831 8.60938 17.0148C10.5427 16.5466 12.5063 16.3125 14.5 16.3125C16.4937 16.3125 18.4573 16.5466 20.3906 17.0148C22.324 17.4831 24.2271 18.1854 26.1 19.1219C26.976 19.575 27.6784 20.232 28.207 21.093C28.7357 21.9539 29 22.8979 29 23.925V29H0ZM3.625 25.375H25.375V23.925C25.375 23.5927 25.2919 23.2906 25.1258 23.0188C24.9596 22.7469 24.7406 22.5354 24.4688 22.3844C22.8375 21.5688 21.1911 20.957 19.5297 20.5492C17.8682 20.1414 16.1917 19.9375 14.5 19.9375C12.8083 19.9375 11.1318 20.1414 9.47031 20.5492C7.80885 20.957 6.1625 21.5688 4.53125 22.3844C4.25938 22.5354 4.04036 22.7469 3.87422 23.0188C3.70807 23.2906 3.625 23.5927 3.625 23.925V25.375ZM14.5 10.875C15.4969 10.875 16.3503 10.5201 17.0602 9.81016C17.7701 9.10026 18.125 8.24687 18.125 7.25C18.125 6.25313 17.7701 5.39974 17.0602 4.68984C16.3503 3.97995 15.4969 3.625 14.5 3.625C13.5031 3.625 12.6497 3.97995 11.9398 4.68984C11.2299 5.39974 10.875 6.25313 10.875 7.25C10.875 8.24687 11.2299 9.10026 11.9398 9.81016C12.6497 10.5201 13.5031 10.875 14.5 10.875Z" fill="#D6D6D6"/>
</svg>
