<svg width="29" height="29" viewBox="0 0 29 29" fill="none" xmlns="http://www.w3.org/2000/svg">
<path d="M6.44444 22.5556H9.66667V11.2778H6.44444V22.5556ZM12.8889 22.5556H16.1111V6.44444H12.8889V22.5556ZM19.3333 22.5556H22.5556V16.1111H19.3333V22.5556ZM3.22222 29C2.33611 29 1.57755 28.6845 0.946528 28.0535C0.315509 27.4225 0 26.6639 0 25.7778V3.22222C0 2.33611 0.315509 1.57755 0.946528 0.946528C1.57755 0.315509 2.33611 0 3.22222 0H25.7778C26.6639 0 27.4225 0.315509 28.0535 0.946528C28.6845 1.57755 29 2.33611 29 3.22222V25.7778C29 26.6639 28.6845 27.4225 28.0535 28.0535C27.4225 28.6845 26.6639 29 25.7778 29H3.22222ZM3.22222 25.7778H25.7778V3.22222H3.22222V25.7778Z" fill="#D6D6D6"/>
</svg>
