<svg width="35" height="29" viewBox="0 0 35 29" fill="none" xmlns="http://www.w3.org/2000/svg">
<path d="M15.9091 29L10.858 24.4083C8.94886 22.663 7.31155 21.1056 5.94602 19.7361C4.58049 18.3667 3.4536 17.0778 2.56534 15.8694C1.67708 14.6611 1.02746 13.4931 0.616477 12.3653C0.205492 11.2375 0 10.056 0 8.82083C0 6.29676 0.835227 4.1956 2.50568 2.51736C4.17614 0.83912 6.25758 0 8.75 0C10.1288 0 11.4413 0.29537 12.6875 0.886111C13.9337 1.47685 15.0076 2.30926 15.9091 3.38333C16.8106 2.30926 17.8845 1.47685 19.1307 0.886111C20.3769 0.29537 21.6894 0 23.0682 0C25.2159 0 27.0189 0.61088 28.4773 1.83264C29.9356 3.0544 30.9299 4.59167 31.4602 6.44444H28.0795C27.6023 5.37037 26.8996 4.56482 25.9716 4.02778C25.0436 3.49074 24.0758 3.22222 23.0682 3.22222C21.7159 3.22222 20.5492 3.59144 19.5682 4.32986C18.5871 5.06829 17.6723 6.04167 16.8239 7.25H14.9943C14.1723 6.04167 13.2377 5.06829 12.1903 4.32986C11.143 3.59144 9.99621 3.22222 8.75 3.22222C7.23864 3.22222 5.93277 3.75255 4.83239 4.81319C3.73201 5.87384 3.18182 7.20972 3.18182 8.82083C3.18182 9.70694 3.36742 10.6065 3.73864 11.5194C4.10985 12.4324 4.77273 13.4863 5.72727 14.6813C6.68182 15.8762 7.98106 17.2725 9.625 18.8701C11.2689 20.4678 13.3636 22.3944 15.9091 24.65C16.5985 24.0324 17.4072 23.3208 18.3352 22.5153C19.2633 21.7097 20.0057 21.0384 20.5625 20.5014L20.9205 20.8639L21.696 21.6493L22.4716 22.4347L22.8295 22.7972C22.2462 23.3343 21.5038 23.9988 20.6023 24.791C19.7008 25.5831 18.9053 26.288 18.2159 26.9056L15.9091 29ZM27.0455 22.5556V17.7222H22.2727V14.5H27.0455V9.66667H30.2273V14.5H35V17.7222H30.2273V22.5556H27.0455Z" fill="#D6D6D6"/>
</svg>
